<svg
  class="absolute top-1"
  style="transform: translateX(15px);"
  xmlns="http://www.w3.org/2000/svg"
  width="120"
  height="120"
  viewBox="0 0 132 133"
  fill="none"
>
  <path
    fill-rule="evenodd"
    clip-rule="evenodd"
    d="M41.2063 35.6549C41.2063 29.2528 43.7495 23.1128 48.2765 18.5858C52.8035 14.0589 58.9434 11.5156 65.3456 11.5156C71.7477 11.5156 77.8876 14.0589 82.4146 18.5858C86.9416 23.1128 89.4848 29.2528 89.4848 35.6549C89.4848 42.057 86.9416 48.1969 82.4146 52.7239C77.8876 57.2509 71.7477 59.7941 65.3456 59.7941C58.9434 59.7941 52.8035 57.2509 48.2765 52.7239C43.7495 48.1969 41.2063 42.057 41.2063 35.6549ZM41.2063 71.8638C33.2036 71.8638 25.5287 75.0428 19.87 80.7015C14.2113 86.3603 11.0322 94.0352 11.0322 102.038C11.0322 106.839 12.9397 111.444 16.3349 114.84C19.7301 118.235 24.3351 120.142 29.1367 120.142H101.554C106.356 120.142 110.961 118.235 114.356 114.84C117.751 111.444 119.659 106.839 119.659 102.038C119.659 94.0352 116.48 86.3603 110.821 80.7015C105.162 75.0428 97.4875 71.8638 89.4848 71.8638H41.2063Z"
    fill="#ccc"
  ></path>
</svg>